<svg xmlns="http://www.w3.org/2000/svg" xmlns:xlink="http://www.w3.org/1999/xlink" width="9.865" height="19.743" viewBox="0 0 9.865 19.743"><defs><clipPath id="a"><path d="M7.245-14.362a9.348,9.348,0,0,1,1.734.206.517.517,0,0,0,.385-.077.47.47,0,0,0,.205-.334l.347-2.506a.5.5,0,0,0-.36-.54A10.531,10.531,0,0,0,6.667-18C3.6-18,2.109-16.535,2.109-13.5v1.324H.542a.488.488,0,0,0-.488.488v2.571a.491.491,0,0,0,.488.5H2.109V1.255a.488.488,0,0,0,.488.488h3.21a.485.485,0,0,0,.475-.488V-8.617H8.876a.5.5,0,0,0,.488-.463l.18-2.571a.493.493,0,0,0-.128-.373.458.458,0,0,0-.347-.154H6.282v-1.131c0-.848.09-1.054.963-1.054Z" transform="translate(-0.054 18)" fill="none" clip-rule="evenodd"/></clipPath><clipPath id="b"><path d="M0,3.05H11.015V-19H0Z" transform="translate(0 19)" fill="none"/></clipPath></defs><g transform="translate(0 0)" clip-path="url(#a)"><g transform="translate(-0.062 -1.153)" clip-path="url(#b)"><path d="M-4.946,8.278h21.4V-23h-21.4Z" transform="translate(-0.759 18.386)" fill="#c7c9ca"/></g></g></svg>