<svg xmlns="http://www.w3.org/2000/svg" xmlns:xlink="http://www.w3.org/1999/xlink" width="21.367" height="21.389" viewBox="0 0 21.367 21.389"><defs><clipPath id="a"><path d="M22.134-15.709v1.645H18.846v3.291H17.2v-3.291H13.916v-1.645H17.2V-19h1.644v3.291ZM8.792-19H14.4L12.67-17.985H10.937a4.488,4.488,0,0,1,1.913,3.792c0,3.406-2.876,3.663-2.876,5.36,0,1.658,3.852,2.314,3.852,5.913A4.73,4.73,0,0,1,12.028.7,8.186,8.186,0,0,1,6.635,2.389c-2.4,0-5.868-1.028-5.868-4.01a3.946,3.946,0,0,1,.475-1.735c1.143-2.314,4.713-2.9,7.011-2.969a3.265,3.265,0,0,1-.822-1.915,3.343,3.343,0,0,1,.283-1.105,7.213,7.213,0,0,1-.9.064A4.5,4.5,0,0,1,2.166-13.7a5.325,5.325,0,0,1,4.225-5.039A11.543,11.543,0,0,1,8.792-19Zm1.682,6.105c0-1.954-1.053-5.18-3.429-5.18-1.682,0-2.5,1.491-2.5,3.008,0,1.954,1.284,5.013,3.57,5.013C9.871-10.054,10.474-11.326,10.474-12.895Zm1.541,11.08c0-1.8-1.682-2.8-2.992-3.715a5.363,5.363,0,0,0-.642-.026c-2.106,0-5.239.668-5.239,3.342,0,2.468,2.774,3.419,4.828,3.419C9.884,1.206,12.015.435,12.015-1.815Z" transform="translate(-0.767 19)" fill="none" clip-rule="evenodd"/></clipPath><clipPath id="b"><path d="M0,2.542H22.521V-20H0Z" transform="translate(0 20)" fill="none"/></clipPath></defs><g transform="translate(0 0)" clip-path="url(#a)"><g transform="translate(-0.884 -1.153)" clip-path="url(#b)"><path d="M-4.233,8.923h32.9V-24h-32.9Z" transform="translate(-0.65 19.386)" fill="#c7c9ca"/></g></g></svg>