<svg xmlns="http://www.w3.org/2000/svg" width="15.396" height="14.712" viewBox="0 0 15.396 14.712"><g transform="translate(-15.21 -17.377)"><rect width="3.3" height="9.926" transform="translate(15.406 22.162)" fill="#c6c6c6"/><path d="M17.078,17.377a1.72,1.72,0,1,0-.044,3.431h.022a1.721,1.721,0,1,0,.021-3.431Z" transform="translate(0)" fill="#c6c6c6"/><path d="M55.212,46.229a3.277,3.277,0,0,0-2.975,1.64V47.9h-.021c.006-.01.015-.022.021-.032V46.462h-3.3c.044.931,0,9.926,0,9.926h3.3V50.845a2.258,2.258,0,0,1,.109-.8,1.806,1.806,0,0,1,1.694-1.207c1.194,0,1.672.911,1.672,2.245v5.311h3.3V50.7C59.012,47.648,57.384,46.229,55.212,46.229Z" transform="translate(-28.406 -24.3)" fill="#c6c6c6"/></g></svg>