<svg xmlns="http://www.w3.org/2000/svg" xmlns:xlink="http://www.w3.org/1999/xlink" width="19.365" height="15.88" viewBox="0 0 19.365 15.88"><defs><clipPath id="a"><path d="M20.132-15.87a.333.333,0,0,0-.33-.331c-.1,0-.816.3-1,.352a3.977,3.977,0,0,0,.816-1.54.333.333,0,0,0-.331-.331.343.343,0,0,0-.165.052,7.761,7.761,0,0,1-2.159.848A4.233,4.233,0,0,0,14.049-18a4.183,4.183,0,0,0-4.173,4.177,2.794,2.794,0,0,0,.041.507,10.571,10.571,0,0,1-6.125-2.667,15.437,15.437,0,0,1-1.136-1.189.324.324,0,0,0-.279-.124.323.323,0,0,0-.258.165,4.128,4.128,0,0,0-.568,2.1,4.138,4.138,0,0,0,.95,2.647,3.421,3.421,0,0,0-.671-.258.384.384,0,0,0-.4.372A4.217,4.217,0,0,0,3.442-8.726a2.41,2.41,0,0,0-.269-.041.329.329,0,0,0-.32.32.44.44,0,0,0,.021.114A4.163,4.163,0,0,0,5.889-5.553a7.343,7.343,0,0,1-3.873,1.1c-.31,0-.62-.052-.919-.052a.333.333,0,0,0-.331.331A.354.354,0,0,0,.921-3.9a6.992,6.992,0,0,0,.9.517A11.21,11.21,0,0,0,6.984-2.12,10.938,10.938,0,0,0,17.2-8.654a11.008,11.008,0,0,0,1.033-4.725v-.341a7.437,7.437,0,0,0,1.849-1.964.357.357,0,0,0,.052-.186Z" transform="translate(-0.767 18)" fill="none" clip-rule="evenodd"/></clipPath><clipPath id="b"><path d="M0-1.265H20.758V-19H0Z" transform="translate(0 19)" fill="none"/></clipPath></defs><g transform="translate(0 0)" clip-path="url(#a)"><g transform="translate(-0.711 -0.928)" clip-path="url(#b)"><path d="M-4.233,2.157H24.409V-23H-4.233Z" transform="translate(0.306 19.289)" fill="#c7c9ca"/></g></g></svg>