<svg xmlns="http://www.w3.org/2000/svg" xmlns:xlink="http://www.w3.org/1999/xlink" width="16.691" height="17.993" viewBox="0 0 16.691 17.993"><defs><clipPath id="a"><path d="M16.979-5.863a1.294,1.294,0,0,1-1.284,1.285H11.2a2.574,2.574,0,0,1-2.568,2.57,2.574,2.574,0,0,1-2.568-2.57H1.571A1.294,1.294,0,0,1,.288-5.863a11.694,11.694,0,0,0,3.852-9c0-2.259,1.424-3.544,3.611-3.805a.914.914,0,0,1-.08-.372A.964.964,0,0,1,8.633-20a.964.964,0,0,1,.963.964.914.914,0,0,1-.08.372c2.187.261,3.611,1.546,3.611,3.805A11.694,11.694,0,0,0,16.979-5.863ZM8.794-2.971a.159.159,0,0,0-.16-.161A1.452,1.452,0,0,1,7.189-4.578a.159.159,0,0,0-.16-.161.159.159,0,0,0-.16.161A1.769,1.769,0,0,0,8.633-2.81.159.159,0,0,0,8.794-2.971Z" transform="translate(-0.288 20)" fill="none" clip-rule="evenodd"/></clipPath><clipPath id="b"><path d="M0-2.079H17.592V-21H0Z" transform="translate(0 21)" fill="none"/></clipPath></defs><g transform="translate(0)"><g transform="translate(0 0)" clip-path="url(#a)"><g transform="translate(-0.259 -0.901)" clip-path="url(#b)"><path d="M-4.713,2h25.7V-25h-25.7Z" transform="translate(0.467 21.396)" fill="#babdbe"/></g></g></g></svg>