<svg xmlns="http://www.w3.org/2000/svg" xmlns:xlink="http://www.w3.org/1999/xlink" width="24.077" height="19.743" viewBox="0 0 24.077 19.743"><defs><clipPath id="a"><path d="M24.843-15.352a.414.414,0,0,0-.411-.411c-.128,0-1.014.373-1.246.437A4.944,4.944,0,0,0,24.2-17.242a.414.414,0,0,0-.411-.411.426.426,0,0,0-.205.064A9.649,9.649,0,0,1,20.9-16.535,5.262,5.262,0,0,0,17.28-18a5.2,5.2,0,0,0-5.188,5.193,3.474,3.474,0,0,0,.051.63,13.143,13.143,0,0,1-7.615-3.316,19.193,19.193,0,0,1-1.412-1.478.4.4,0,0,0-.347-.154.4.4,0,0,0-.321.206,5.132,5.132,0,0,0-.706,2.609A5.144,5.144,0,0,0,2.924-11.02a4.254,4.254,0,0,0-.835-.321.478.478,0,0,0-.5.463,5.244,5.244,0,0,0,2.5,4.409,3,3,0,0,0-.334-.051.409.409,0,0,0-.4.4.547.547,0,0,0,.026.141,5.176,5.176,0,0,0,3.75,3.458A9.13,9.13,0,0,1,2.32-1.162c-.385,0-.77-.064-1.143-.064a.414.414,0,0,0-.411.411.44.44,0,0,0,.193.347A8.694,8.694,0,0,0,2.076.175,13.937,13.937,0,0,0,8.5,1.743,13.6,13.6,0,0,0,21.2-6.38a13.686,13.686,0,0,0,1.284-5.874v-.424a9.246,9.246,0,0,0,2.3-2.442.444.444,0,0,0,.064-.231Z" transform="translate(-0.767 18)" fill="none" clip-rule="evenodd"/></clipPath><clipPath id="b"><path d="M0,3.05H25.808V-19H0Z" transform="translate(0 19)" fill="none"/></clipPath></defs><g transform="translate(0 0)" clip-path="url(#a)"><g transform="translate(-0.884 -1.153)" clip-path="url(#b)"><path d="M-4.233,8.278H31.377V-23H-4.233Z" transform="translate(-0.65 18.386)" fill="#c7c9ca"/></g></g></svg>