<svg xmlns="http://www.w3.org/2000/svg" xmlns:xlink="http://www.w3.org/1999/xlink" width="7.934" height="15.88" viewBox="0 0 7.934 15.88"><defs><clipPath id="a"><path d="M5.838-15.074a7.519,7.519,0,0,1,1.394.165.416.416,0,0,0,.31-.062.378.378,0,0,0,.165-.269l.279-2.016A.4.4,0,0,0,7.7-17.69,8.47,8.47,0,0,0,5.373-18C2.9-18,1.707-16.821,1.707-14.382v1.065H.446a.392.392,0,0,0-.392.393v2.068a.4.4,0,0,0,.392.4h1.26v7.94A.392.392,0,0,0,2.1-2.12H4.681a.39.39,0,0,0,.382-.393v-7.94H7.149a.4.4,0,0,0,.392-.372l.145-2.068a.4.4,0,0,0-.1-.3.369.369,0,0,0-.279-.124H5.063v-.91c0-.682.072-.848.775-.848Z" transform="translate(-0.054 18)" fill="none" clip-rule="evenodd"/></clipPath><clipPath id="b"><path d="M0-1.265H8.86V-19H0Z" transform="translate(0 19)" fill="none"/></clipPath></defs><g transform="translate(0 0)" clip-path="url(#a)"><g transform="translate(-0.05 -0.928)" clip-path="url(#b)"><path d="M-4.946,2.157H12.266V-23H-4.946Z" transform="translate(0.357 19.289)" fill="#c7c9ca"/></g></g></svg>